<?xml version="1.0" standalone="no"?>
<!DOCTYPE svg PUBLIC "-//W3C//DTD SVG 20010904//EN"
 "http://www.w3.org/TR/2001/REC-SVG-20010904/DTD/svg10.dtd">
<svg version="1.0" xmlns="http://www.w3.org/2000/svg"
 width="1280.000000pt" height="1024.000000pt" viewBox="0 0 1280.000000 1024.000000"
 preserveAspectRatio="xMidYMid meet">
<metadata>
Created by potrace 1.16, written by Peter Selinger 2001-2019
</metadata>
<g transform="translate(0.000000,1024.000000) scale(0.100000,-0.100000)"
fill="#000000" stroke="none">
<path d="M4555 9831 c-57 -27 -1668 -1642 -1690 -1693 -35 -87 -5 -187 74
-243 l43 -30 841 -3 c581 -2 853 0 879 8 50 14 97 56 119 105 18 38 19 86 19
880 0 794 -1 842 -19 880 -44 98 -167 142 -266 96z"/>
<path d="M5194 9833 c30 -102 31 -125 31 -983 0 -795 -1 -870 -18 -929 -57
-208 -220 -371 -427 -426 -83 -22 -1778 -22 -1863 0 -32 8 -60 15 -62 15 -3 0
-5 -1482 -5 -3292 0 -2844 2 -3302 15 -3362 46 -215 215 -391 430 -446 77 -20
112 -20 3105 -20 2993 0 3028 0 3105 20 214 55 385 231 430 446 22 103 22
8424 0 8526 -41 198 -200 375 -392 440 l-68 23 -2143 3 c-2043 2 -2143 1
-2138 -15z m3579 -1597 c41 -17 91 -74 107 -121 27 -82 -19 -184 -102 -224
l-44 -21 -1537 0 c-1365 0 -1542 2 -1575 15 -145 61 -164 253 -34 336 l46 29
1553 0 c1282 0 1559 -2 1586 -14z m-2223 -1393 c86 -39 128 -81 261 -260 73
-98 134 -180 135 -182 2 -2 101 11 221 29 253 37 305 36 400 -10 122 -60 210
-186 220 -313 4 -51 -22 -287 -52 -459 -4 -26 9 -38 175 -163 98 -74 192 -153
209 -174 117 -148 113 -354 -9 -494 -21 -23 -115 -101 -209 -172 -156 -117
-171 -131 -167 -154 3 -14 17 -109 32 -211 32 -230 30 -284 -20 -385 -64 -129
-177 -206 -313 -213 -59 -3 -357 31 -459 53 -18 4 -42 -22 -148 -164 -133
-178 -189 -237 -253 -269 -136 -68 -310 -46 -421 53 -27 25 -107 121 -177 214
-116 157 -129 170 -153 165 -129 -23 -373 -54 -425 -54 -167 0 -313 106 -366
267 -12 35 -21 84 -21 109 0 39 42 366 56 435 4 23 -11 37 -171 158 -96 73
-191 151 -210 173 -115 136 -119 339 -8 484 15 20 110 100 211 176 169 129
183 142 178 167 -23 110 -57 415 -53 463 14 162 147 305 316 339 58 12 80 11
293 -20 223 -32 230 -33 243 -15 7 11 69 93 137 183 130 175 176 217 270 252
70 26 211 22 278 -8z m-825 -3619 c79 -105 119 -149 187 -201 272 -209 667
-219 945 -24 78 55 134 113 217 224 44 58 64 77 82 77 l24 0 0 -795 c0 -770
-1 -797 -20 -834 -24 -48 -70 -87 -118 -101 -47 -13 -56 -13 -106 2 -34 10
-84 54 -288 257 l-248 245 -247 -246 c-215 -213 -254 -248 -292 -258 -86 -23
-180 19 -221 99 -20 39 -20 56 -20 836 l0 795 24 0 c18 0 38 -19 81 -76z"/>
</g>
</svg>
